<?xml version="1.0" encoding="UTF-8"?>
<svg version="1.1" xmlns="http://www.w3.org/2000/svg" width="1206" height="162">
<path d="M0 0 C8.58 0 17.16 0 26 0 C28.95743322 7.27610298 31.91265071 14.55302644 34.86230469 21.83227539 C35.86549908 24.30725356 36.87076428 26.7813613 37.87695312 29.25512695 C39.32499806 32.81585801 40.76840388 36.37843947 42.2109375 39.94140625 C42.88447769 41.59336754 42.88447769 41.59336754 43.57162476 43.27870178 C45.66901211 48.47146057 47.61485422 53.57090422 49 59 C57.33176297 50.85994131 64.38767071 41.59268297 71.4375 32.34765625 C75.42142771 27.12717867 79.50026388 21.98088222 83.56494141 16.82324219 C85.08096005 14.89714024 86.5935912 12.96841638 88.10546875 11.0390625 C88.61086182 10.39445068 89.11625488 9.74983887 89.63696289 9.08569336 C90.61186545 7.84207279 91.5863285 6.59810752 92.56030273 5.35375977 C95.88790795 1.11209205 95.88790795 1.11209205 97 0 C98.99964982 -0.08758003 101.0023611 -0.10696576 103.00390625 -0.09765625 C104.09775635 -0.09515869 105.19160645 -0.09266113 106.31860352 -0.09008789 C107.73323588 -0.08092389 109.147868 -0.07172138 110.5625 -0.0625 C112.95955244 -0.05101209 115.35660662 -0.03988579 117.75366211 -0.02905273 C119.83577474 -0.01936849 121.91788737 -0.00968424 124 0 C120.28266571 20.48619211 116.3073761 40.91789836 112.26904297 61.34277344 C111.40700453 65.70303953 110.54826572 70.06394863 109.69034195 74.42502594 C109.02259823 77.81725254 108.35303229 81.20911747 107.68291473 84.60087585 C107.36495019 86.21152475 107.04758548 87.82229218 106.73084259 89.43318176 C106.29281944 91.65960701 105.85230982 93.885526 105.41113281 96.11132812 C105.16196106 97.3733606 104.91278931 98.63539307 104.65606689 99.93566895 C104 103 104 103 103 106 C93.43 106 83.86 106 74 106 C74.95978706 100.91364184 75.91991037 95.82734939 76.88085938 90.74121094 C77.20689802 89.01501027 77.53274842 87.28877403 77.85839844 85.5625 C78.32956886 83.06500769 78.80141457 80.56764382 79.2734375 78.0703125 C79.42520447 77.26555481 79.57697144 76.46079712 79.7333374 75.63165283 C80.66455502 70.71114336 81.63428745 65.80137084 82.68994141 60.90576172 C83.10705596 58.66378846 83.10705596 58.66378846 83 55 C82.44054688 55.72960937 81.88109375 56.45921875 81.3046875 57.2109375 C77.38006539 62.3217798 73.44738173 67.42624018 69.5 72.51953125 C68.60692139 73.67243652 68.60692139 73.67243652 67.69580078 74.84863281 C66.48136147 76.40861251 65.26096048 77.96396918 64.03466797 79.51464844 C61.49713996 82.72889666 58.99936591 85.90055259 56.8203125 89.37109375 C55.01309079 92.10519526 53.66333118 94.08690296 51 96 C46.18960939 96.79476019 41.82080801 96.50432105 37 96 C32.3617797 87.09811285 28.40498188 78.03868474 24.625 68.75 C24.07463929 67.40737962 23.52386012 66.06493069 22.97265625 64.72265625 C21.64362931 61.48372415 20.32020442 58.24253991 19 55 C17.01965601 60.37745581 15.93294396 65.82324594 14.8359375 71.4296875 C14.63900299 72.42001984 14.44206848 73.41035217 14.23916626 74.43069458 C13.61414702 77.57808961 12.99450035 80.72651454 12.375 83.875 C11.95087555 86.01569531 11.52640025 88.15632114 11.1015625 90.296875 C10.0629842 95.53033597 9.03168442 100.76515682 8 106 C-1.57 106 -11.14 106 -21 106 C-19.82772267 98.38019735 -18.65935243 90.85149028 -17.13647461 83.31005859 C-16.87509956 81.99770737 -16.87509956 81.99770737 -16.60844421 80.65884399 C-16.04256595 77.8214694 -15.47258477 74.98493821 -14.90234375 72.1484375 C-14.50383665 70.1564216 -14.10552977 68.16436562 -13.70741272 66.17227173 C-12.87796576 62.02512605 -12.04655283 57.87838113 -11.21362305 53.73193359 C-10.1454917 48.41410763 -9.08168221 43.09542818 -8.01923275 37.77646446 C-7.19973011 33.67561594 -6.37831446 29.57515251 -5.55627632 25.47481155 C-5.1630383 23.51247037 -4.77031875 21.55002521 -4.37812614 19.58747482 C-3.83202457 16.85659711 -3.28343301 14.12623157 -2.73413086 11.39599609 C-2.49176697 10.18046051 -2.49176697 10.18046051 -2.24450684 8.94036865 C-1.62879921 5.89092345 -0.9848976 2.95469281 0 0 Z " fill="#FFFFFF" transform="translate(1069,30)"/>
<path d="M0 0 C7.75546897 -0.07655022 15.51083919 -0.12880865 23.26660156 -0.16479492 C25.90075319 -0.17980939 28.53488012 -0.20022713 31.16894531 -0.22631836 C34.97206751 -0.26302525 38.77485694 -0.27980049 42.578125 -0.29296875 C43.74112122 -0.30845261 44.90411743 -0.32393646 46.10235596 -0.33988953 C59.096873 -0.34251791 71.03052069 2.29700199 80.8125 11.25 C87.3972771 18.26255845 89.35719009 27.05045392 89.21484375 36.4453125 C88.28477234 47.50470707 84.41251003 57.58897925 76 65 C75.45214844 65.50402344 74.90429688 66.00804688 74.33984375 66.52734375 C70.10375227 70.33517104 65.95069925 74 60 74 C61.93788772 77.46938865 63.87680553 80.93819939 65.81665039 84.40649414 C66.79822596 86.16197189 67.77900173 87.91789677 68.75976562 89.67382812 C69.38173828 90.78564453 70.00371094 91.89746094 70.64453125 93.04296875 C71.50075073 94.57473755 71.50075073 94.57473755 72.37426758 96.13745117 C73.44863483 98.02917005 74.56025405 99.90026257 75.7097168 101.74731445 C77 104 77 104 77 106 C49.27024326 108.69209113 49.27024326 108.69209113 42.58349609 104.4765625 C39.06746845 100.58873177 37.28162778 96.03070043 35.70263672 91.0859375 C34.7798823 88.34653037 33.39405979 86.01233648 31.875 83.5625 C30 80.25862069 30 80.25862069 30 78 C25.05 78 20.1 78 15 78 C14.9175 79.27875 14.835 80.5575 14.75 81.875 C13.95786502 90.05645384 11.84898717 98.00760387 10 106 C-0.23 106 -10.46 106 -21 106 C-19.82772267 98.38019735 -18.65935243 90.85149028 -17.13647461 83.31005859 C-16.87509956 81.99770737 -16.87509956 81.99770737 -16.60844421 80.65884399 C-16.04256595 77.8214694 -15.47258477 74.98493821 -14.90234375 72.1484375 C-14.50383665 70.1564216 -14.10552977 68.16436562 -13.70741272 66.17227173 C-12.87796576 62.02512605 -12.04655283 57.87838113 -11.21362305 53.73193359 C-10.1454917 48.41410763 -9.08168221 43.09542818 -8.01923275 37.77646446 C-7.19973011 33.67561594 -6.37831446 29.57515251 -5.55627632 25.47481155 C-5.1630383 23.51247037 -4.77031875 21.55002521 -4.37812614 19.58747482 C-3.83202457 16.85659711 -3.28343301 14.12623157 -2.73413086 11.39599609 C-2.49176697 10.18046051 -2.49176697 10.18046051 -2.24450684 8.94036865 C-1.62879921 5.89092345 -0.9848976 2.95469281 0 0 Z M26 24 C25.14289208 27.95044687 24.28846192 31.90146232 23.43652344 35.85302734 C23.14624639 37.19758805 22.85523444 38.54199031 22.56347656 39.88623047 C22.14455691 41.81696561 21.72848719 43.74831842 21.3125 45.6796875 C20.93544922 47.42354736 20.93544922 47.42354736 20.55078125 49.20263672 C19.93560532 51.85187581 19.93560532 51.85187581 20 54 C24.04152915 54.08746928 28.08281305 54.14054982 32.125 54.1875 C33.26710938 54.21263672 34.40921875 54.23777344 35.5859375 54.26367188 C43.15802821 54.32970755 47.60617059 53.54537205 53.75 48.9375 C56.86458596 44.871235 57.66612942 41.06506105 58 36 C57.34734656 31.67617094 56.2967526 30.2967526 53.1875 27.1875 C47.53535958 23.30858011 41.8162275 23.87323941 35.1875 23.9375 C33.86202148 23.94426758 33.86202148 23.94426758 32.50976562 23.95117188 C30.33981441 23.96290134 28.16989828 23.98083505 26 24 Z " fill="#FFFFFF" transform="translate(737,30)"/>
<path d="M0 0 C7.75546897 -0.07655022 15.51083919 -0.12880865 23.26660156 -0.16479492 C25.90075319 -0.17980939 28.53488012 -0.20022713 31.16894531 -0.22631836 C34.97206751 -0.26302525 38.77485694 -0.27980049 42.578125 -0.29296875 C43.74112122 -0.30845261 44.90411743 -0.32393646 46.10235596 -0.33988953 C59.096873 -0.34251791 71.03052069 2.29700199 80.8125 11.25 C87.3972771 18.26255845 89.35719009 27.05045392 89.21484375 36.4453125 C88.28477234 47.50470707 84.41251003 57.58897925 76 65 C75.45214844 65.50402344 74.90429688 66.00804688 74.33984375 66.52734375 C70.10375227 70.33517104 65.95069925 74 60 74 C61.93788772 77.46938865 63.87680553 80.93819939 65.81665039 84.40649414 C66.79822596 86.16197189 67.77900173 87.91789677 68.75976562 89.67382812 C69.38173828 90.78564453 70.00371094 91.89746094 70.64453125 93.04296875 C71.50075073 94.57473755 71.50075073 94.57473755 72.37426758 96.13745117 C73.44863483 98.02917005 74.56025405 99.90026257 75.7097168 101.74731445 C77 104 77 104 77 106 C49.27024326 108.69209113 49.27024326 108.69209113 42.58349609 104.4765625 C39.06746845 100.58873177 37.28162778 96.03070043 35.70263672 91.0859375 C34.7798823 88.34653037 33.39405979 86.01233648 31.875 83.5625 C30 80.25862069 30 80.25862069 30 78 C25.05 78 20.1 78 15 78 C14.9175 79.27875 14.835 80.5575 14.75 81.875 C13.95786502 90.05645384 11.84898717 98.00760387 10 106 C-0.23 106 -10.46 106 -21 106 C-19.82772267 98.38019735 -18.65935243 90.85149028 -17.13647461 83.31005859 C-16.87509956 81.99770737 -16.87509956 81.99770737 -16.60844421 80.65884399 C-16.04256595 77.8214694 -15.47258477 74.98493821 -14.90234375 72.1484375 C-14.50383665 70.1564216 -14.10552977 68.16436562 -13.70741272 66.17227173 C-12.87796576 62.02512605 -12.04655283 57.87838113 -11.21362305 53.73193359 C-10.1454917 48.41410763 -9.08168221 43.09542818 -8.01923275 37.77646446 C-7.19973011 33.67561594 -6.37831446 29.57515251 -5.55627632 25.47481155 C-5.1630383 23.51247037 -4.77031875 21.55002521 -4.37812614 19.58747482 C-3.83202457 16.85659711 -3.28343301 14.12623157 -2.73413086 11.39599609 C-2.49176697 10.18046051 -2.49176697 10.18046051 -2.24450684 8.94036865 C-1.62879921 5.89092345 -0.9848976 2.95469281 0 0 Z M26 24 C25.14289208 27.95044687 24.28846192 31.90146232 23.43652344 35.85302734 C23.14624639 37.19758805 22.85523444 38.54199031 22.56347656 39.88623047 C22.14455691 41.81696561 21.72848719 43.74831842 21.3125 45.6796875 C20.93544922 47.42354736 20.93544922 47.42354736 20.55078125 49.20263672 C19.93560532 51.85187581 19.93560532 51.85187581 20 54 C24.04152915 54.08746928 28.08281305 54.14054982 32.125 54.1875 C33.26710938 54.21263672 34.40921875 54.23777344 35.5859375 54.26367188 C43.15802821 54.32970755 47.60617059 53.54537205 53.75 48.9375 C56.86458596 44.871235 57.66612942 41.06506105 58 36 C57.34734656 31.67617094 56.2967526 30.2967526 53.1875 27.1875 C47.53535958 23.30858011 41.8162275 23.87323941 35.1875 23.9375 C33.86202148 23.94426758 33.86202148 23.94426758 32.50976562 23.95117188 C30.33981441 23.96290134 28.16989828 23.98083505 26 24 Z " fill="#FFFFFF" transform="translate(215,30)"/>
<path d="M0 0 C11.55 0 23.1 0 35 0 C40.63355755 9.88039323 46.02918021 19.77066024 51 30 C51.75539063 29.24332031 52.51078125 28.48664062 53.2890625 27.70703125 C54.77843063 26.21980918 56.27031782 24.7350409 57.7734375 23.26171875 C60.75661845 20.32947016 63.62728284 17.34228636 66.375 14.1875 C66.93501709 13.56431885 67.49503418 12.9411377 68.07202148 12.29907227 C70.05748166 10.03015282 70.05748166 10.03015282 71.65258789 7.42553711 C74.19596329 3.84779194 76.5705729 0.64222769 80.9921875 -0.52664185 C86.67324411 -1.25367808 92.36026153 -0.91149032 98.0625 -0.625 C99.80390832 -0.57476863 101.54545626 -0.52915361 103.28710938 -0.48828125 C107.52822186 -0.37877434 111.76255649 -0.20667354 116 0 C114.14038235 3.17333709 112.4309225 5.78817344 109.75 8.3125 C107.3636604 10.62967033 105.10164698 12.97424871 102.9375 15.5 C99.40165985 19.6051024 95.70669323 23.5499991 92 27.5 C87.87572549 31.89786976 83.79505816 36.31097889 79.86328125 40.8828125 C75.34659387 46.01498139 70.64845394 50.98745468 66 56 C71.06560534 66.24696165 76.26695088 76.40894083 81.64697266 86.49438477 C82.76573385 88.59200009 83.88111414 90.69138816 84.99609375 92.79101562 C85.72116048 94.1537489 86.44641388 95.51638288 87.171875 96.87890625 C87.49798767 97.49254532 87.82410034 98.10618439 88.16009521 98.73841858 C89.79613218 101.8024093 91.47955693 104.82619053 93.23925781 107.82006836 C95 111 95 111 95 113 C83.45 113 71.9 113 60 113 C57.7415625 108.6996875 57.7415625 108.6996875 55.4375 104.3125 C51.33841993 96.51598657 47.1984327 88.74346694 43 81 C42.16597656 81.96679688 41.33195312 82.93359375 40.47265625 83.9296875 C34.7425591 90.56228989 29.0017089 97.17705107 23.09765625 103.65625 C21.06234505 105.82883358 21.06234505 105.82883358 19.81086731 107.73609924 C17.81965898 110.47365564 16.24581301 112.63087225 12.91914368 113.61654663 C10.4724628 113.80835876 8.11598981 113.78855514 5.6640625 113.68359375 C4.34503433 113.6687368 4.34503433 113.6687368 2.99935913 113.65357971 C0.20616855 113.61456763 -2.58300926 113.52678017 -5.375 113.4375 C-7.27468259 113.40236866 -9.17442714 113.37043284 -11.07421875 113.34179688 C-15.71767869 113.26484988 -20.35816046 113.14416635 -25 113 C-18.73545949 105.6408702 -18.73545949 105.6408702 -15.66796875 102.38671875 C-14.81887939 101.48252197 -14.81887939 101.48252197 -13.95263672 100.56005859 C-13.3701416 99.94211426 -12.78764648 99.32416992 -12.1875 98.6875 C-7.49935768 93.69033025 -2.85998423 88.6589297 1.703125 83.546875 C3.49143667 81.56391717 5.29295304 79.59761649 7.109375 77.640625 C7.64997559 77.05812988 8.19057617 76.47563477 8.74755859 75.87548828 C9.80611659 74.7368953 10.86625529 73.59976918 11.92822266 72.46435547 C13.98575761 70.25101913 15.95191984 68.06635498 17.7265625 65.6171875 C18.14679688 65.08351563 18.56703125 64.54984375 19 64 C19.66 64 20.32 64 21 64 C21.226875 63.46375 21.45375 62.9275 21.6875 62.375 C23.43040127 59.22117866 25.66887304 56.74914811 28 54 C21.48524296 41.39991524 14.90851917 28.84437494 8.01074219 16.44873047 C7.30933105 15.17860107 7.30933105 15.17860107 6.59375 13.8828125 C5.98563477 12.79057373 5.98563477 12.79057373 5.36523438 11.67626953 C3.41883192 7.86073597 1.73961858 3.91414181 0 0 Z " fill="#FF00CC" transform="translate(420,23)"/>
<path d="M0 0 C27.72 0 55.44 0 84 0 C80 22 80 22 79 24 C61.51 24 44.02 24 26 24 C25.01 29.61 24.02 35.22 23 41 C38.18 41 53.36 41 69 41 C68 51 68 51 65 64 C49.49 64 33.98 64 18 64 C17.01 69.28 16.02 74.56 15 80 C14.67 80.66 14.34 81.32 14 82 C32.15 82 50.3 82 69 82 C68 92 68 92 65 106 C36.62 106 8.24 106 -21 106 C-19.82772267 98.38019735 -18.65935243 90.85149028 -17.13647461 83.31005859 C-16.87509956 81.99770737 -16.87509956 81.99770737 -16.60844421 80.65884399 C-16.04256595 77.8214694 -15.47258477 74.98493821 -14.90234375 72.1484375 C-14.50383665 70.1564216 -14.10552977 68.16436562 -13.70741272 66.17227173 C-12.87796576 62.02512605 -12.04655283 57.87838113 -11.21362305 53.73193359 C-10.1454917 48.41410763 -9.08168221 43.09542818 -8.01923275 37.77646446 C-7.19973011 33.67561594 -6.37831446 29.57515251 -5.55627632 25.47481155 C-5.1630383 23.51247037 -4.77031875 21.55002521 -4.37812614 19.58747482 C-3.83202457 16.85659711 -3.28343301 14.12623157 -2.73413086 11.39599609 C-2.49176697 10.18046051 -2.49176697 10.18046051 -2.24450684 8.94036865 C-1.62879921 5.89092345 -0.9848976 2.95469281 0 0 Z " fill="#FFFFFF" transform="translate(849,30)"/>
<path d="M0 0 C27.72 0 55.44 0 84 0 C80 22 80 22 79 24 C61.51 24 44.02 24 26 24 C25.01 29.61 24.02 35.22 23 41 C38.18 41 53.36 41 69 41 C68 51 68 51 65 64 C49.49 64 33.98 64 18 64 C17.01 69.28 16.02 74.56 15 80 C14.67 80.66 14.34 81.32 14 82 C32.15 82 50.3 82 69 82 C68 92 68 92 65 106 C36.62 106 8.24 106 -21 106 C-19.82772267 98.38019735 -18.65935243 90.85149028 -17.13647461 83.31005859 C-16.87509956 81.99770737 -16.87509956 81.99770737 -16.60844421 80.65884399 C-16.04256595 77.8214694 -15.47258477 74.98493821 -14.90234375 72.1484375 C-14.50383665 70.1564216 -14.10552977 68.16436562 -13.70741272 66.17227173 C-12.87796576 62.02512605 -12.04655283 57.87838113 -11.21362305 53.73193359 C-10.1454917 48.41410763 -9.08168221 43.09542818 -8.01923275 37.77646446 C-7.19973011 33.67561594 -6.37831446 29.57515251 -5.55627632 25.47481155 C-5.1630383 23.51247037 -4.77031875 21.55002521 -4.37812614 19.58747482 C-3.83202457 16.85659711 -3.28343301 14.12623157 -2.73413086 11.39599609 C-2.49176697 10.18046051 -2.49176697 10.18046051 -2.24450684 8.94036865 C-1.62879921 5.89092345 -0.9848976 2.95469281 0 0 Z " fill="#FFFFFF" transform="translate(327,30)"/>
<path d="M0 0 C1.46143621 0.05022118 2.92303831 0.09583813 4.38476562 0.13671875 C7.94748596 0.24633139 11.5039285 0.4184942 15.0625 0.625 C18.3262753 14.00170344 21.58607749 27.37936966 24.84128571 40.75816059 C26.35281797 46.96999748 27.86563184 53.18151646 29.38134766 59.39233398 C30.84321465 65.38270247 32.30175033 71.37387294 33.75794983 77.36562157 C34.31495334 79.65491998 34.87317001 81.94392357 35.43260193 84.23262978 C36.21411175 87.43077018 36.99135657 90.62991833 37.76757812 93.8293457 C38.00134659 94.78168594 38.23511505 95.73402618 38.47596741 96.71522522 C38.68632126 97.58600708 38.89667511 98.45678894 39.11340332 99.35395813 C39.29776192 100.11075017 39.48212051 100.86754221 39.67206573 101.64726734 C40.0625 103.625 40.0625 103.625 40.0625 106.625 C29.8325 106.625 19.6025 106.625 9.0625 106.625 C7.0825 96.725 7.0825 96.725 5.0625 86.625 C-1.05104313 86.42232694 -7.1301369 86.26721856 -13.24194336 86.22827148 C-15.31506327 86.2012933 -17.38802345 86.14765254 -19.4597168 86.06616211 C-30.69830523 85.18380867 -30.69830523 85.18380867 -40.74688721 89.10272217 C-44.11617782 93.17801149 -45.96631955 97.76406572 -47.9375 102.625 C-49.17285156 105.0793457 -49.17285156 105.0793457 -50.9375 106.625 C-53.58455128 106.98169893 -55.80985676 107.09276797 -58.44921875 107.015625 C-59.17744339 107.00996521 -59.90566803 107.00430542 -60.65596008 106.99847412 C-62.97964498 106.97610029 -65.30178207 106.92590669 -67.625 106.875 C-69.20114959 106.85493609 -70.77732337 106.83668512 -72.35351562 106.8203125 C-76.21543924 106.77623283 -80.0762073 106.70720225 -83.9375 106.625 C-79.80614472 99.43383349 -75.56885628 92.35860223 -71 85.4375 C-69.86764864 83.70888391 -68.73618112 81.97968862 -67.60546875 80.25 C-67.0129834 79.34378906 -66.42049805 78.43757813 -65.81005859 77.50390625 C-62.44755534 72.3343315 -59.13166217 67.13496601 -55.8125 61.9375 C-50.90885314 54.26212596 -45.9896365 46.59785835 -41.02783203 38.95996094 C-38.46209134 35.00304002 -35.92185774 31.03093881 -33.3984375 27.046875 C-32.78307129 26.07580811 -32.16770508 25.10474121 -31.53369141 24.10424805 C-30.34372572 22.22425333 -29.15574642 20.34299911 -27.97021484 18.46020508 C-27.4180127 17.58775146 -26.86581055 16.71529785 -26.296875 15.81640625 C-25.81702148 15.05529541 -25.33716797 14.29418457 -24.84277344 13.51000977 C-23.89966309 12.08192993 -23.89966309 12.08192993 -22.9375 10.625 C-22.53881714 9.79064423 -22.14013428 8.95628845 -21.72937012 8.09664917 C-16.58082996 -1.3304802 -9.64895166 -0.57673896 0 0 Z M-6.9375 31.625 C-8.24426469 33.68538619 -9.49245117 35.75535509 -10.71875 37.86328125 C-11.09229614 38.49985153 -11.46584229 39.13642181 -11.85070801 39.7922821 C-12.64266727 41.1439167 -13.43277278 42.49663887 -14.22119141 43.8503418 C-15.42771908 45.92071617 -16.64111126 47.98694501 -17.85546875 50.05273438 C-18.62281182 51.36434005 -19.38975206 52.6761815 -20.15625 53.98828125 C-20.51980591 54.60713699 -20.88336182 55.22599274 -21.25793457 55.86360168 C-22.75163306 58.43564355 -23.99358242 60.79324725 -24.9375 63.625 C-16.6875 63.625 -8.4375 63.625 0.0625 63.625 C-0.76306824 56.07452555 -0.76306824 56.07452555 -2.12890625 48.71484375 C-2.46245117 47.20180664 -2.46245117 47.20180664 -2.80273438 45.65820312 C-3.03283203 44.63662109 -3.26292969 43.61503906 -3.5 42.5625 C-3.73396484 41.50611328 -3.96792969 40.44972656 -4.20898438 39.36132812 C-4.78096312 36.78158727 -5.35721273 34.20288225 -5.9375 31.625 C-6.2675 31.625 -6.5975 31.625 -6.9375 31.625 Z " fill="#FFFFFF" transform="translate(999.9375,29.375)"/>
<path d="M0 0 C0.70157227 0.15686279 1.40314453 0.31372559 2.12597656 0.4753418 C7.04984805 1.71224204 11.75905316 3.52298359 16.0625 6.25 C16.5575 7.24 16.5575 7.24 17.0625 8.25 C15.77368358 11.89236151 13.98693667 15.3332402 12.3125 18.8125 C11.85617187 19.79669922 11.39984375 20.78089844 10.9296875 21.79492188 C10.26066406 23.19774414 10.26066406 23.19774414 9.578125 24.62890625 C9.16852539 25.4907251 8.75892578 26.35254395 8.33691406 27.24047852 C7.0625 29.25 7.0625 29.25 4.0625 30.25 C2.19732264 29.30045516 0.33389222 28.34728772 -1.51953125 27.375 C-13.03107424 22.019064 -26.30606616 21.44873037 -38.2421875 25.59375 C-39.08136719 25.91859375 -39.08136719 25.91859375 -39.9375 26.25 C-40.2675 28.89 -40.5975 31.53 -40.9375 34.25 C-35.1090617 38.40424704 -29.59258399 40.46687451 -22.6875 42.1875 C-10.8838831 45.35168536 0.5996208 48.72116459 7.375 59.6875 C10.43831419 66.30175799 10.09465921 74.1820784 8.33203125 81.12890625 C7.3981853 83.6255148 6.33733742 85.91069437 5.0625 88.25 C4.55396484 89.20132813 4.55396484 89.20132813 4.03515625 90.171875 C-1.62370966 99.2743924 -12.73892338 104.71113305 -22.828125 107.3359375 C-29.21325029 108.69532589 -35.62349429 108.57933456 -42.125 108.5625 C-43.35025391 108.57861328 -44.57550781 108.59472656 -45.83789062 108.61132812 C-58.6918072 108.61810404 -71.53150778 106.48268615 -82.9375 100.25 C-84.2575 98.93 -85.5775 97.61 -86.9375 96.25 C-82.9775 88.99 -79.0175 81.73 -74.9375 74.25 C-69.98443418 75.90102194 -65.58292494 77.77256728 -60.9140625 80.03125 C-54.01800945 82.85483078 -47.74537738 83.59191092 -40.375 83.5625 C-39.15780273 83.58666992 -39.15780273 83.58666992 -37.91601562 83.61132812 C-32.53726716 83.61566933 -28.63435334 82.95687074 -23.9375 80.25 C-22.8759058 76.66136476 -22.8759058 76.66136476 -22.9375 73.25 C-28.33788822 68.99289535 -34.04694604 67.61058104 -40.625 65.875 C-54.07868057 62.12029711 -64.44800061 58.58214897 -71.8125 46.0625 C-74.67962478 36.3461327 -73.11190357 26.92181662 -68.82421875 17.91015625 C-62.98249769 7.82931017 -52.80616448 2.97645637 -41.9453125 -0.05859375 C-28.42591646 -3.16629907 -13.53044226 -3.03293446 0 0 Z " fill="#FFFFFF" transform="translate(605.9375,29.75)"/>
<path d="M0 0 C31.68 0 63.36 0 96 0 C92 22 92 22 91 24 C75.16 24.495 75.16 24.495 59 25 C58.52054932 27.41820068 58.04109863 29.83640137 57.54711914 32.32788086 C55.96604795 40.29938628 54.3807674 48.27005029 52.79338932 56.24030209 C51.83068097 61.07475722 50.86941196 65.90948945 49.91137695 70.74487305 C48.98752804 75.40743991 48.05997082 80.06925471 47.12978935 84.73056221 C46.77479086 86.51297045 46.421151 88.29564982 46.06886482 90.07859612 C45.57688197 92.56736105 45.08016552 95.05513578 44.58227539 97.54272461 C44.43625885 98.28718842 44.29024231 99.03165222 44.13980103 99.79867554 C43.11405216 104.88594784 43.11405216 104.88594784 42 106 C31.77 106 21.54 106 11 106 C16.28 79.27 21.56 52.54 27 25 C16.44 24.67 5.88 24.34 -5 24 C-3.35 16.08 -1.7 8.16 0 0 Z " fill="#FFFFFF" transform="translate(631,30)"/>
<path d="M0 0 C3.70294977 2.85002313 6.5278408 6.03580533 9 10 C9 10.99 9 11.98 9 13 C9.66 13 10.32 13 11 13 C24.15462346 29.75108455 25.3294036 49.5421363 24 70 C21.99138763 85.67145663 12.41771997 103.86041813 0 114 C-3.19140625 114.6640625 -3.19140625 114.6640625 -6.5625 114.625 C-7.67753906 114.63789063 -8.79257813 114.65078125 -9.94140625 114.6640625 C-13 114 -13 114 -15.3515625 111.75 C-17.50953947 108.14996259 -17.8661313 105.88114571 -17.71875 101.7421875 C-16.51367394 97.14456035 -13.44486289 94.20483148 -10.32421875 90.7265625 C-1.04725116 79.84366607 1.94647652 64.92672591 1 51 C0.2947136 46.89274393 -0.75276593 42.97387131 -2 39 C-2.40025391 37.700625 -2.40025391 37.700625 -2.80859375 36.375 C-5.51402434 28.67955298 -10.44063643 23.11070007 -15.71484375 17.01953125 C-18.09537615 13.27869463 -17.68761161 9.25631584 -17 5 C-13.40098958 -1.42680433 -6.62177389 -1.77249503 0 0 Z " fill="#FFFFFF" transform="translate(148,19)"/>
<path d="M0 0 C3.64146394 3.02426667 4.86807395 4.90689848 5.4375 9.625 C5.35914847 15.07043142 2.37614314 17.99590901 -1 22 C-10.98923238 34.6745099 -13.95237098 48.0307794 -13 64 C-11.06108683 75.90435661 -6.596261 84.78226333 1 94 C4.68002704 98.61960841 5.40943557 102.06318418 5 108 C2.8 112.6 2.8 112.6 0 114 C-4.94030688 114.7372458 -9.84737107 115.24896559 -14.2890625 112.671875 C-24.7351991 102.76677336 -34.12917936 85.71352246 -35.30639648 71.23046875 C-35.33944708 69.88304524 -35.360502 68.53528717 -35.37109375 67.1875 C-35.38012222 66.45611816 -35.3891507 65.72473633 -35.39845276 64.97119141 C-35.41288386 63.42826373 -35.42182412 61.88527585 -35.42553711 60.34228516 C-35.43733112 58.03306644 -35.48649195 55.726617 -35.53710938 53.41796875 C-35.68570709 39.69373776 -32.58643078 27.64828749 -25 16 C-24.45214844 15.15695313 -23.90429688 14.31390625 -23.33984375 13.4453125 C-21.62616548 10.90680887 -19.83943569 8.44843805 -18 6 C-17.32710937 5.02740234 -17.32710937 5.02740234 -16.640625 4.03515625 C-12.40522423 -1.25909471 -6.36077398 -1.36428857 0 0 Z " fill="#FFFFFF" transform="translate(53,19)"/>
<path d="M0 0 C3.26494951 2.77026019 3.87081542 4.68508569 4.625 8.875 C3.90793075 13.81481039 1.76026323 16.39616547 -1.1796875 20.3359375 C-4.59814576 25.03062017 -6.59868118 29.60204805 -6.35546875 35.578125 C-5.21338127 41.51271039 -1.8413872 46.71358862 1.875 51.375 C4.77128804 55.26115864 4.75489691 57.98015465 4.0625 62.75 C2.26886089 65.5600346 1.04369065 67.25940468 -1.9375 68.75 C-6.83383308 69.28718762 -10.8052559 69.27418708 -15.3125 67.1875 C-18.36994957 64.34843969 -20.12272023 61.43605074 -21.9375 57.75 C-22.36160156 56.99460938 -22.78570312 56.23921875 -23.22265625 55.4609375 C-29.1905762 44.49945188 -30.05895109 33.48371676 -27.40625 21.3125 C-25.02107804 13.36192681 -21.19707817 3.96010864 -13.86328125 -0.51171875 C-9.08790692 -2.34244035 -4.63847931 -1.97382098 0 0 Z " fill="#FFFFFF" transform="translate(76.9375,42.25)"/>
<path d="M0 0 C6.741934 2.99641511 9.80769467 8.03769174 12.6875 14.5 C12.99494141 15.16386719 13.30238281 15.82773437 13.61914062 16.51171875 C18.20134435 26.55847614 19.02427148 39.4458829 15.375 50 C14.63625498 51.69078966 13.84386768 53.35914619 13 55 C12.54109375 55.89460938 12.0821875 56.78921875 11.609375 57.7109375 C8.75079707 62.84133263 6.13338825 67.03842986 1 70 C-3.99357837 70.89257198 -7.69749837 70.79744998 -12.0625 68.125 C-15.07892843 64.81665914 -15.56581289 62.12974439 -15.55859375 57.625 C-14.83034006 54.20271695 -13.27872728 52.30431556 -11.125 49.5625 C-7.16645592 44.51412584 -4.97943534 40.49843337 -5 34 C-5.75439897 28.03840812 -7.80850439 23.97876315 -11.6875 19.4375 C-14.88905658 15.60512825 -15.91413106 13.00814816 -15.50390625 8.015625 C-14.7374762 4.94990479 -13.27268804 3.13900051 -11 1 C-7.55135643 -0.72432178 -3.77817827 -0.36732289 0 0 Z " fill="#FFFFFF" transform="translate(123,41)"/>
<path d="M0 0 C4.38299083 2.19149542 7.20074724 4.40190962 9 9 C9.54454427 13.58324763 9.58720242 17.57835205 7.8125 21.875 C2.82328986 27.72441878 2.82328986 27.72441878 -1.55859375 28.38671875 C-7.52456004 28.62147183 -11.3919029 28.13547175 -16 24 C-19.38865781 18.91701328 -18.68710661 12.92716209 -18 7 C-13.51775124 0.52564068 -7.53589487 -1.05973522 0 0 Z " fill="#FFFFFF" transform="translate(99,62)"/>
</svg>
